<svg version="1" xmlns="http://www.w3.org/2000/svg" width="346.667" height="346.667" viewBox="0 0 260.000000 260.000000"><path d="M27 50.3v16.3l12.8-.1h12.7v126H39.8l-12.8-.1V225h98v-32.6l-10.7.1h-10.8l-.3-62.4c-.1-41.2.1-62.7.8-63.1.5-.3 5.9-.6 12-.5l11 .1V34H27v16.3z"/><path d="M143.8 45.7c-.2 6.5-.1 13.8.2 16.3l.5 4.6 10.3-.1c5.7-.1 10.5.2 10.7.6.3.3-1.2 2.1-3.3 4-3.6 3.2-37.2 34.2-46.4 42.7-2.6 2.4-6.3 5.8-8.3 7.6l-3.6 3.2 3.3 3.9c1.8 2.1 14.7 17.1 28.6 33.3 13.8 16.3 25.2 29.8 25.2 30.1 0 .4-4.6.6-10.2.6h-10.3l-.3 16.2-.2 16.3h103v-32.6l-9.9.1-10 .1-9.3-11c-5.1-6-9.7-11.4-10.3-12-1.2-1.3-13.1-15.2-16-18.7-1.1-1.3-6.3-7.4-11.5-13.5-5.2-6-10.9-12.7-12.7-14.8l-3.2-3.8 12.2-11.8c6.7-6.5 14.7-14.1 17.7-17 3-2.9 9.7-9.3 14.8-14.3l9.4-9.2H237.5l.3-16.3.2-16.2h-93.9l-.3 11.7z"/></svg>